<mxfile host="app.diagrams.net" modified="2024-05-16T03:45:15.402Z" agent="Mozilla/5.0 (Windows NT 10.0; Win64; x64) AppleWebKit/537.36 (KHTML, like Gecko) Chrome/124.0.0.0 Safari/537.36 Edg/124.0.0.0" etag="TWYIqlbrbSSOG1IA0lBz" version="24.2.1" type="github">
  <diagram id="prtHgNgQTEPvFCAcTncT" name="Page-1">
    <mxGraphModel dx="1514" dy="831" grid="1" gridSize="10" guides="1" tooltips="1" connect="1" arrows="1" fold="1" page="1" pageScale="1" pageWidth="827" pageHeight="1169" math="0" shadow="0">
      <root>
        <mxCell id="0" />
        <mxCell id="1" parent="0" />
        <mxCell id="iWF-D2QrT9TJfmCGUdRL-1" value="" style="rounded=0;whiteSpace=wrap;html=1;" vertex="1" parent="1">
          <mxGeometry x="70" y="90" width="560" height="390" as="geometry" />
        </mxCell>
        <mxCell id="iWF-D2QrT9TJfmCGUdRL-2" value="QT客户端" style="rounded=0;whiteSpace=wrap;html=1;" vertex="1" parent="1">
          <mxGeometry x="150" y="110" width="460" height="60" as="geometry" />
        </mxCell>
        <mxCell id="iWF-D2QrT9TJfmCGUdRL-3" value="展现层" style="rounded=1;whiteSpace=wrap;html=1;" vertex="1" parent="1">
          <mxGeometry x="80" y="110" width="50" height="60" as="geometry" />
        </mxCell>
        <mxCell id="iWF-D2QrT9TJfmCGUdRL-5" value="通讯层" style="rounded=1;whiteSpace=wrap;html=1;" vertex="1" parent="1">
          <mxGeometry x="80" y="190" width="50" height="60" as="geometry" />
        </mxCell>
        <mxCell id="iWF-D2QrT9TJfmCGUdRL-6" value="服务层" style="rounded=1;whiteSpace=wrap;html=1;" vertex="1" parent="1">
          <mxGeometry x="80" y="270" width="50" height="100" as="geometry" />
        </mxCell>
        <mxCell id="iWF-D2QrT9TJfmCGUdRL-7" value="数据层" style="rounded=1;whiteSpace=wrap;html=1;" vertex="1" parent="1">
          <mxGeometry x="80" y="400" width="50" height="60" as="geometry" />
        </mxCell>
        <mxCell id="iWF-D2QrT9TJfmCGUdRL-8" value="" style="rounded=0;whiteSpace=wrap;html=1;" vertex="1" parent="1">
          <mxGeometry x="150" y="190" width="460" height="60" as="geometry" />
        </mxCell>
        <mxCell id="iWF-D2QrT9TJfmCGUdRL-9" value="socket" style="rounded=1;whiteSpace=wrap;html=1;" vertex="1" parent="1">
          <mxGeometry x="240" y="200" width="70" height="40" as="geometry" />
        </mxCell>
        <mxCell id="iWF-D2QrT9TJfmCGUdRL-11" value="http" style="rounded=1;whiteSpace=wrap;html=1;" vertex="1" parent="1">
          <mxGeometry x="440" y="200" width="70" height="40" as="geometry" />
        </mxCell>
        <mxCell id="iWF-D2QrT9TJfmCGUdRL-13" value="" style="rounded=0;whiteSpace=wrap;html=1;" vertex="1" parent="1">
          <mxGeometry x="140" y="280" width="460" height="80" as="geometry" />
        </mxCell>
        <mxCell id="iWF-D2QrT9TJfmCGUdRL-14" value="" style="rounded=0;whiteSpace=wrap;html=1;" vertex="1" parent="1">
          <mxGeometry x="140" y="400" width="460" height="60" as="geometry" />
        </mxCell>
        <mxCell id="iWF-D2QrT9TJfmCGUdRL-15" value="MySQL" style="shape=cylinder3;whiteSpace=wrap;html=1;boundedLbl=1;backgroundOutline=1;size=15;" vertex="1" parent="1">
          <mxGeometry x="340" y="400" width="50" height="60" as="geometry" />
        </mxCell>
      </root>
    </mxGraphModel>
  </diagram>
</mxfile>
